<svg width="34" height="33" viewBox="0 0 34 33" fill="none" xmlns="http://www.w3.org/2000/svg">
<path fill-rule="evenodd" clip-rule="evenodd" d="M10.3328 13.3523L7.66618 13.3529L7.66676 16.0196L7.66764 20.0196L7.66793 21.3529C6.19517 21.3533 5.00152 22.5474 5.00184 24.0202L5.00213 25.3535C5.00246 26.8263 6.19662 28.0199 7.66938 28.0196L26.3361 28.0155C27.8088 28.0152 29.0025 26.821 29.0021 25.3483L29.0018 24.0149C29.0015 22.5422 27.8074 21.3485 26.3346 21.3489L26.3343 20.0155L26.3334 16.0155L26.3328 13.3489L23.6662 13.3494L23.6668 16.0161L23.6676 20.0161L23.6679 21.3494L21.0013 21.35L21.001 20.0167L21.0001 16.0167L20.9995 13.35L18.3328 13.3506L18.3334 16.0173L18.3343 20.0173L18.3346 21.3506L15.6679 21.3512L15.6676 20.0179L15.6668 16.0179L15.6662 13.3512L12.9995 13.3518L13.0001 16.0184L13.001 20.0184L13.0013 21.3518L10.3346 21.3523L10.3343 20.019L10.3334 16.019L10.3328 13.3523Z" fill="#B3A9FF"/>
<path d="M4.99885 9.91784C4.9986 8.7818 5.71812 7.77032 6.7914 7.39793L16.124 4.15985C16.6898 3.96353 17.3053 3.9634 17.8712 4.15947L27.2052 7.39347C28.2786 7.76539 28.9986 8.77655 28.9988 9.9126L28.999 10.6814C28.9993 12.1542 27.8057 13.3484 26.3329 13.3487L7.66627 13.3528C6.19351 13.3531 4.99934 12.1595 4.99902 10.6867L4.99885 9.91784Z" fill="black"/>
</svg>
