<svg width="33" height="33" viewBox="0 0 33 33" fill="none" xmlns="http://www.w3.org/2000/svg">
<path d="M8.49874 9.66462C8.49841 8.17114 8.49825 7.42441 8.78877 6.85391C9.04432 6.35209 9.45218 5.94405 9.95389 5.68828C10.5243 5.39751 11.271 5.39734 12.7645 5.39702L25.5645 5.39422C27.0579 5.39389 27.8047 5.39373 28.3752 5.68425C28.877 5.93981 29.285 6.34767 29.5408 6.84937C29.8316 7.41974 29.8317 8.16648 29.8321 9.65995L29.8337 17.1266C29.834 18.6201 29.8342 19.3668 29.5437 19.9373C29.2881 20.4391 28.8803 20.8472 28.3785 21.103C27.8082 21.3937 27.0614 21.3939 25.568 21.3942L12.768 21.397C11.2745 21.3973 10.5278 21.3975 9.95726 21.107C9.45544 20.8514 9.0474 20.4436 8.79163 19.9419C8.50086 19.3715 8.50069 18.6248 8.50037 17.1313L8.49874 9.66462Z" fill="#B3A9FF"/>
<path fill-rule="evenodd" clip-rule="evenodd" d="M3.45649 12.1884C3.26914 12.5563 3.20267 12.9975 3.17918 13.665C3.1665 14.0256 3.16015 14.2059 3.23091 14.3536C3.29176 14.4806 3.39851 14.5912 3.52334 14.6564C3.66851 14.7323 3.857 14.7323 4.23397 14.7322L23.4322 14.728C23.8091 14.7279 23.9976 14.7279 24.1428 14.6519C24.2676 14.5866 24.3743 14.476 24.4351 14.349C24.5058 14.2012 24.4993 14.0209 24.4865 13.6604C24.4627 12.9929 24.3961 12.5517 24.2085 12.1838C23.9528 11.6821 23.5447 11.2743 23.0429 11.0187C22.4724 10.7282 21.7257 10.7284 20.2322 10.7287L7.43219 10.7315C5.93872 10.7318 5.19198 10.732 4.62162 11.0228C4.11991 11.2785 3.71205 11.6866 3.45649 12.1884ZM24.5006 18.4611C24.5005 18.0877 24.5004 17.901 24.4277 17.7584C24.3638 17.633 24.2618 17.5311 24.1363 17.4672C23.9937 17.3945 23.807 17.3946 23.4337 17.3947L4.23365 17.3989C3.86028 17.3989 3.6736 17.399 3.53101 17.4717C3.40558 17.5356 3.30361 17.6376 3.23973 17.7631C3.1671 17.9057 3.16714 18.0924 3.16722 18.4658L3.16809 22.4658C3.16842 23.9592 3.16858 24.706 3.45936 25.2763C3.71513 25.778 4.12317 26.1859 4.62499 26.4415C5.19548 26.732 5.94222 26.7318 7.43569 26.7315L20.2357 26.7287C21.7292 26.7284 22.4759 26.7282 23.0463 26.4374C23.548 26.1817 23.9558 25.7736 24.2114 25.2718C24.5019 24.7013 24.5018 23.9546 24.5014 22.4611L24.5006 18.4611Z" fill="black"/>
</svg>
