<svg width="34" height="33" viewBox="0 0 34 33" fill="none" xmlns="http://www.w3.org/2000/svg">
<path d="M30.3334 16.9706C30.335 24.3344 24.3668 30.3052 17.003 30.3068C9.63918 30.3084 3.66834 24.3402 3.66673 16.9764C3.66512 9.6126 9.63336 3.64176 16.9972 3.64015C24.3609 3.63854 30.3318 9.60677 30.3334 16.9706Z" fill="#CCC5FF"/>
<path fill-rule="evenodd" clip-rule="evenodd" d="M15.6646 7.64056C15.6644 6.90418 16.2613 6.3071 16.9976 6.30694C17.734 6.30678 18.3311 6.9036 18.3313 7.63998L18.3316 8.97331C20.5407 8.97283 22.3319 10.7633 22.3324 12.9724C22.3326 13.7088 21.7358 14.3059 20.9994 14.3061C20.263 14.3062 19.6659 13.7094 19.6658 12.973C19.6656 12.2366 19.0685 11.6398 18.3321 11.64L15.6655 11.6406C14.9291 11.6407 14.3323 12.2378 14.3324 12.9742L14.3326 13.7188C14.3327 14.2927 14.7001 14.8022 15.2446 14.9835L19.5981 16.4337C21.2316 16.9778 22.3336 18.5061 22.334 20.2278L22.3342 20.9724C22.3347 23.1816 20.5442 24.9728 18.3351 24.9733L18.3353 26.3066C18.3355 27.043 17.7387 27.6401 17.0023 27.6403C16.2659 27.6404 15.6688 27.0436 15.6687 26.3072L15.6684 24.9739C13.4592 24.9744 11.668 23.1839 11.6675 20.9748C11.6674 20.2384 12.2642 19.6413 13.0006 19.6411C13.7369 19.641 14.334 20.2378 14.3342 20.9742C14.3343 21.7106 14.9314 22.3074 15.6678 22.3072L18.3345 22.3066C19.0709 22.3065 19.6677 21.7094 19.6675 20.973L19.6673 20.2284C19.6672 19.6545 19.2999 19.145 18.7554 18.9637L14.4018 17.5135C12.7684 16.9695 11.6663 15.4411 11.6659 13.7194L11.6658 12.9748C11.6653 10.7656 13.4558 8.97438 15.6649 8.9739L15.6646 7.64056Z" fill="black"/>
</svg>
