<svg width="46" height="47" viewBox="0 0 46 47" fill="none" xmlns="http://www.w3.org/2000/svg">
<path d="M4 18.2027C4 14.9474 4 13.3198 4.62126 12.0764C5.16774 10.9827 6.03973 10.0935 7.11225 9.53623C8.33155 8.90271 9.9277 8.90271 13.12 8.90271H32.88C36.0723 8.90271 37.6684 8.90271 38.8877 9.53623C39.9603 10.0935 40.8323 10.9827 41.3787 12.0764C42 13.3198 42 14.9474 42 18.2027V30.6027C42 33.858 42 35.4857 41.3787 36.729C40.8323 37.8227 39.9603 38.7119 38.8877 39.2692C37.6684 39.9027 36.0723 39.9027 32.88 39.9027H13.12C9.9277 39.9027 8.33155 39.9027 7.11225 39.2692C6.03973 38.7119 5.16774 37.8227 4.62126 36.729C4 35.4857 4 33.858 4 30.6027V18.2027Z" fill="#B3A9FF"/>
<rect x="28" y="26.9027" width="17" height="17" rx="8.5" fill="#BFFF6C"/>
<path fill-rule="evenodd" clip-rule="evenodd" d="M32.3295 34.5778C31.8902 35.0334 31.8902 35.7721 32.3295 36.2277L34.5795 38.561C35.0188 39.0166 35.7312 39.0166 36.1705 38.561C36.6098 38.1054 36.6098 37.3667 36.1705 36.9111L35.841 36.5694L39.875 36.5694C40.4963 36.5694 41 36.047 41 35.4027C41 34.7584 40.4963 34.236 39.875 34.236L35.841 34.236L36.1705 33.8943C36.6098 33.4387 36.6098 32.7 36.1705 32.2444C35.7312 31.7888 35.0188 31.7888 34.5795 32.2444L32.3295 34.5778Z" fill="#5A44FE"/>
<path d="M11 29.9027C11 28.7981 11.8954 27.9027 13 27.9027H21C22.1046 27.9027 23 28.7981 23 29.9027C23 31.0073 22.1046 31.9027 21 31.9027H13C11.8954 31.9027 11 31.0073 11 29.9027Z" fill="black"/>
<path d="M4 15.9027H42V19.9027H4V15.9027Z" fill="black"/>
</svg>
