<svg width="46" height="47" viewBox="0 0 46 47" fill="none" xmlns="http://www.w3.org/2000/svg">
<path d="M2 15.6861C2 12.6409 2 11.1182 2.67031 9.95507C3.25993 8.93194 4.20076 8.10011 5.35796 7.5788C6.67352 6.98615 8.39568 6.98615 11.84 6.98615H33.16C36.6043 6.98615 38.3265 6.98615 39.642 7.5788C40.7992 8.10011 41.7401 8.93194 42.3297 9.95507C43 11.1182 43 12.6409 43 15.6861V27.2861C43 30.3314 43 31.8541 42.3297 33.0172C41.7401 34.0403 40.7992 34.8722 39.642 35.3935C38.3265 35.9861 36.6043 35.9861 33.16 35.9861H11.84C8.39568 35.9861 6.67352 35.9861 5.35796 35.3935C4.20076 34.8722 3.25993 34.0403 2.67031 33.0172C2 31.8541 2 30.3314 2 27.2861V15.6861Z" fill="#B3A9FF"/>
<path fill-rule="evenodd" clip-rule="evenodd" d="M3 14.2361C7.52874 14.2361 11.2 10.9902 11.2 6.98615H15.3C15.3 12.9922 9.7931 17.8611 3 17.8611V14.2361ZM27.6 21.4861C27.6 23.4882 25.7644 25.1111 23.5 25.1111C21.2356 25.1111 19.4 23.4882 19.4 21.4861C19.4 19.4841 21.2356 17.8611 23.5 17.8611C25.7644 17.8611 27.6 19.4841 27.6 21.4861ZM44 14.2361C39.4713 14.2361 35.8 10.9902 35.8 6.98615H31.7C31.7 12.9922 37.2069 17.8611 44 17.8611V14.2361ZM11.2 35.9861C11.2 31.9821 7.52874 28.7361 3 28.7361V25.1111C9.7931 25.1111 15.3 29.98 15.3 35.9861H11.2ZM35.8 35.9861C35.8 31.9821 39.4713 28.7361 44 28.7361V25.1111C37.2069 25.1111 31.7 29.98 31.7 35.9861H35.8Z" fill="black"/>
<rect x="26" y="23.9861" width="17" height="17" rx="8.5" fill="#BEFF6C"/>
<path d="M33.8325 27.7851C34.0461 27.2717 34.7736 27.2717 34.9871 27.7851L35.9743 30.1578C36.0638 30.3729 36.2655 30.5204 36.4976 30.5405L38.8417 30.7437C39.3785 30.7902 39.609 31.4484 39.2184 31.8195L37.4377 33.5116C37.2762 33.6651 37.2086 33.893 37.2603 34.1097L37.8611 36.628C37.9902 37.1688 37.4017 37.5963 36.927 37.3064L34.7358 35.9684C34.5357 35.8462 34.284 35.8462 34.0839 35.9684L31.8926 37.3064C31.418 37.5963 30.8295 37.1688 30.9585 36.628L31.5596 34.1089C31.6112 33.8926 31.544 33.6652 31.383 33.5117L29.6083 31.8187C29.219 31.4472 29.4497 30.7903 29.9858 30.7437L32.3222 30.5406C32.5543 30.5204 32.7559 30.3729 32.8453 30.1579L33.8325 27.7851Z" fill="#5A44FE"/>
</svg>
