<svg width="46" height="47" viewBox="0 0 46 47" fill="none" xmlns="http://www.w3.org/2000/svg">
<path d="M4 17.3695C4 14.1142 4 12.4865 4.62126 11.2431C5.16774 10.1494 6.03973 9.26025 7.11225 8.70298C8.33155 8.06946 9.9277 8.06946 13.12 8.06946H32.88C36.0723 8.06946 37.6684 8.06946 38.8877 8.70298C39.9603 9.26025 40.8323 10.1494 41.3787 11.2431C42 12.4865 42 14.1142 42 17.3695V29.7695C42 33.0248 42 34.6524 41.3787 35.8958C40.8323 36.9895 39.9603 37.8787 38.8877 38.4359C37.6684 39.0695 36.0723 39.0695 32.88 39.0695H13.12C9.9277 39.0695 8.33155 39.0695 7.11225 38.4359C6.03973 37.8787 5.16774 36.9895 4.62126 35.8958C4 34.6524 4 33.0248 4 29.7695V17.3695Z" fill="#B3A9FF"/>
<rect x="27" y="26.0695" width="17" height="17" rx="8.5" fill="#BEFF6C"/>
<path fill-rule="evenodd" clip-rule="evenodd" d="M35.5 30.0695C36.1213 30.0695 36.625 30.5731 36.625 31.1945V33.4445H38.875C39.4963 33.4445 40 33.9481 40 34.5695C40 35.1908 39.4963 35.6945 38.875 35.6945H36.625V37.9445C36.625 38.5658 36.1213 39.0695 35.5 39.0695C34.8787 39.0695 34.375 38.5658 34.375 37.9445V35.6945H32.125C31.5037 35.6945 31 35.1908 31 34.5695C31 33.9481 31.5037 33.4445 32.125 33.4445H34.375V31.1945C34.375 30.5731 34.8787 30.0695 35.5 30.0695Z" fill="#5A44FE"/>
<path d="M11 29.0695C11 27.9649 11.8954 27.0695 13 27.0695H21C22.1046 27.0695 23 27.9649 23 29.0695C23 30.174 22.1046 31.0695 21 31.0695H13C11.8954 31.0695 11 30.174 11 29.0695Z" fill="black"/>
<path d="M4 15.0695H42V19.0695H4V15.0695Z" fill="black"/>
</svg>
