<svg width="57" height="58" viewBox="0 0 57 58" fill="none" xmlns="http://www.w3.org/2000/svg">
<path d="M0.390795 17.6397C0.667075 9.51272 6.8828 2.82849 14.9683 1.96338L21.6622 1.24717C26.3043 0.75049 30.9863 0.75311 35.6278 1.25499L42.0493 1.94933C50.1269 2.82274 56.3326 9.50366 56.6087 17.6237L57 29.1351L56.6137 40.4995C56.3355 48.683 50.0374 55.3941 41.8881 56.1909L34.8542 56.8787C30.6281 57.2919 26.3719 57.2919 22.1458 56.8787L15.1119 56.1909C6.96254 55.3941 0.664544 48.683 0.386341 40.4995L0 29.1351L0.390795 17.6397Z" fill="#5A45FE"/>
<path fill-rule="evenodd" clip-rule="evenodd" d="M34.8985 41.9401C33.281 42.6244 31.34 42.9666 29.0754 42.9666C26.9478 42.9666 25.0876 42.6555 23.495 42.0334C21.9148 41.3988 20.6705 40.4967 19.7622 39.3271C18.8539 38.1451 18.3438 36.7266 18.2318 35.0718L18.2131 34.7732H23.5323L23.5696 34.9785C23.6941 35.6753 24.0051 36.2787 24.5028 36.7889C25.013 37.2866 25.6724 37.6785 26.4812 37.9647C27.2899 38.2384 28.2045 38.3753 29.2248 38.3753C30.2699 38.3753 31.1658 38.2384 31.9123 37.9647C32.6713 37.6785 33.2561 37.2803 33.6667 36.7702C34.0898 36.2476 34.3013 35.6441 34.3013 34.9598V34.9411C34.3013 34.0328 33.9405 33.3236 33.2188 32.8135C32.5096 32.2909 31.3151 31.8554 29.6354 31.507L26.7985 30.9471C24.1482 30.4121 22.1512 29.51 20.8074 28.2409C20.2597 27.7236 19.8236 27.1433 19.4992 26.5H30.0795L31.763 26.8411C34.5875 27.401 36.6529 28.2906 37.9594 29.51C39.2783 30.7169 39.9378 32.378 39.9378 34.4932V34.5119C39.9378 36.2414 39.5023 37.7407 38.6313 39.0098C37.7728 40.2665 36.5285 41.2433 34.8985 41.9401ZM24.4818 23.5C24.446 23.3277 24.4282 23.1473 24.4282 22.959V22.9403C24.4282 22.2933 24.6086 21.7272 24.9694 21.2419C25.3427 20.7567 25.8777 20.3772 26.5745 20.1035C27.2713 19.8173 28.0987 19.6742 29.0568 19.6742C29.99 19.6742 30.8112 19.8111 31.5204 20.0848C32.2421 20.3585 32.8206 20.7505 33.2561 21.2606C33.6916 21.7583 33.9591 22.3618 34.0587 23.071L34.0773 23.295H39.3965L39.3778 22.9403C39.2907 21.3726 38.8242 19.9977 37.9781 18.8157C37.132 17.6336 35.9499 16.7191 34.4319 16.0721C32.9264 15.4251 31.1347 15.1016 29.0568 15.1016C27.066 15.1016 25.2991 15.4437 23.7563 16.1281C22.2134 16.8 21.0003 17.7518 20.1168 18.9836C19.2334 20.203 18.7917 21.6339 18.7917 23.2763V23.295C18.7917 23.3637 18.7925 23.4321 18.794 23.5H24.4818Z" fill="white"/>
</svg>
